<?xml version="1.0" encoding="UTF-8" standalone="no"?>
<!-- Created with Inkscape (http://www.inkscape.org/) -->

<svg
   xmlns:dc="http://purl.org/dc/elements/1.1/"
   xmlns:cc="http://creativecommons.org/ns#"
   xmlns:rdf="http://www.w3.org/1999/02/22-rdf-syntax-ns#"
   xmlns:svg="http://www.w3.org/2000/svg"
   xmlns="http://www.w3.org/2000/svg"
   xmlns:sodipodi="http://sodipodi.sourceforge.net/DTD/sodipodi-0.dtd"
   xmlns:inkscape="http://www.inkscape.org/namespaces/inkscape"
   id="svg3141"
   version="1.1"
   inkscape:version="0.48.3.1 r9886"
   width="328.2375"
   height="394.275"
   xml:space="preserve"
   sodipodi:docname="mono-gorilla.eps"><metadata
     id="metadata3147"><rdf:RDF><cc:Work
         rdf:about=""><dc:format>image/svg+xml</dc:format><dc:type
           rdf:resource="http://purl.org/dc/dcmitype/StillImage" /><dc:title></dc:title></cc:Work></rdf:RDF></metadata><defs
     id="defs3145" /><sodipodi:namedview
     pagecolor="#ffffff"
     bordercolor="#666666"
     borderopacity="1"
     objecttolerance="10"
     gridtolerance="10"
     guidetolerance="10"
     inkscape:pageopacity="0"
     inkscape:pageshadow="2"
     inkscape:window-width="1366"
     inkscape:window-height="718"
     id="namedview3143"
     showgrid="false"
     inkscape:zoom="1.349312"
     inkscape:cx="164.11874"
     inkscape:cy="197.1375"
     inkscape:window-x="0"
     inkscape:window-y="0"
     inkscape:window-maximized="1"
     inkscape:current-layer="g3149" /><g
     id="g3149"
     inkscape:groupmode="layer"
     inkscape:label="ink_ext_XXXXXX"
     transform="matrix(1.25,0,0,-1.25,0,394.275)"><g
       id="g3151"
       transform="scale(0.1,0.1)"><path
         d="m 2309.76,3154.15 -2155.436,0 C 69.0938,3154.15 0,3085.06 0,2999.82 l 0,-814.01 485.031,135.5 322.84,-133.89 -264.211,133.89 c 0,0 -185.836,101.57 -218.543,234.73 -32.707,133.15 132.988,285.09 132.988,285.09 l 599.325,-76.67 -326.012,61.4 c 0,0 114.344,76.15 371.532,67.88 282.24,-9.07 679.91,-80.41 745.54,-146.04 65.64,-65.64 187.95,-508.93 117.63,-579.27 -33.02,-33.02 -454.82,70.48 -454.82,70.48 l 351.88,-111.55 c 0,0 195.15,-447.89 71.7,-833.09 0,0 -268.66,145.79 -481.35,433.66 176.25,-368.85 464.84,-487.13 464.84,-487.13 0,0 -108.49,-292.038 -171.33,-354.862 L 723.43,1326.05 203.742,690.09 l 2106.018,0 c 85.23,0 154.31,69.101 154.31,154.324 l 0,2155.406 c 0,85.24 -69.08,154.33 -154.31,154.33"
         style="fill:#231f20;fill-opacity:1;fill-rule:nonzero;stroke:none"
         id="path3153" /><path
         d="m 461.391,244.141 0,-165.4105 c 0,-26.1328 -5.957,-45.7422 -17.871,-58.7891 C 431.605,6.89453 415.863,0.351562 396.332,0.351562 c -18.945,0 -34.297,6.542968 -46.055,19.589838 -11.757,13.0469 -17.636,32.6563 -17.636,58.7891 l 0,198.2225 c 0,31.289 -1.075,55.586 -3.203,72.91 -2.129,17.305 -7.911,31.504 -17.325,42.598 -9.414,11.094 -24.297,16.641 -44.648,16.641 -40.723,0 -67.539,-13.985 -80.449,-41.934 -12.93,-27.949 -19.375,-68.047 -19.375,-120.293 l 0,-168.1445 c 0,-25.8203 -5.879,-45.3516 -17.637,-58.5547 C 138.246,6.97266 122.738,0.351562 103.5,0.351562 84.5547,0.351562 69.0469,6.97266 56.9766,20.1758 44.9062,33.3789 38.8906,52.9102 38.8906,78.75 l 0,355.938 c 0,23.398 5.4102,41.171 16.25,53.32 10.8399,12.148 25.1172,18.242 42.8516,18.242 17.1098,0 31.3868,-5.703 42.8318,-17.109 11.446,-11.407 17.188,-27.129 17.188,-47.207 l 0,-11.856 c 21.621,25.84 44.765,44.844 69.433,57.012 24.668,12.168 52.071,18.262 82.227,18.262 31.367,0 58.32,-6.25 80.859,-18.711 22.539,-12.461 41.114,-31.329 55.742,-56.563 20.977,25.547 43.457,44.473 67.481,56.797 24.004,12.305 50.605,18.477 79.805,18.477 34.023,0 63.359,-6.7 87.988,-20.079 24.609,-13.378 43.008,-32.539 55.176,-57.461 10.605,-22.5 15.918,-57.89 15.918,-106.191 l 0,-242.8905 c 0,-26.1328 -5.918,-45.7227 -17.754,-58.7891 C 723.051,6.89453 707.445,0.351562 688.031,0.351562 c -18.808,0 -34.199,6.621098 -46.172,19.824238 -11.992,13.2031 -17.968,32.7344 -17.968,58.5547 l 0,209.1605 c 0,26.718 -1.153,48.144 -3.438,64.238 -2.285,16.094 -8.437,29.629 -18.476,40.566 -10.039,10.938 -25.254,16.407 -45.645,16.407 -16.445,0 -32.031,-4.864 -46.797,-14.59 -14.765,-9.727 -26.25,-22.774 -34.453,-39.18 -9.141,-20.977 -13.691,-58.027 -13.691,-111.191"
         style="fill:#231f20;fill-opacity:1;fill-rule:nonzero;stroke:none"
         id="path3155" /><path
         d="m 1339.12,252.891 c 0,-37.071 -5.78,-71.231 -17.3,-102.52 -11.55,-31.289 -28.25,-58.1835 -50.1,-80.664 C 1249.86,47.2266 1223.75,29.9805 1193.4,17.9883 1163.03,6.01562 1128.87,0 1090.94,0 c -37.66,0 -71.51,6.09375 -101.565,18.2422 -30.059,12.1484 -56.094,29.5508 -78.086,52.207 -22.012,22.6563 -38.711,49.4138 -50.098,80.2738 -11.386,30.859 -17.07,65 -17.07,102.402 0,37.695 5.762,72.207 17.305,103.535 11.523,31.309 28.066,58.067 49.629,80.254 21.562,22.188 47.675,39.297 78.34,51.309 30.665,12.011 64.515,18.027 101.545,18.027 37.63,0 71.79,-6.094 102.46,-18.262 30.66,-12.187 56.91,-29.531 78.77,-52.05 21.85,-22.52 38.47,-49.297 49.86,-80.333 11.39,-31.054 17.09,-65.293 17.09,-102.714 z m -125,0 c 0,50.742 -11.15,90.234 -33.42,118.476 -22.26,28.242 -52.18,42.383 -89.76,42.383 -24.26,0 -45.63,-6.309 -64.1,-18.906 -18.48,-12.617 -32.719,-31.211 -42.719,-55.821 -10,-24.609 -15,-53.32 -15,-86.132 0,-32.5 4.922,-60.918 14.766,-85.215 9.843,-24.297 23.943,-42.91 42.283,-55.821 18.32,-12.9097 39.92,-19.355 64.77,-19.355 37.58,0 67.5,14.199 89.76,42.598 22.27,28.398 33.42,67.675 33.42,117.793"
         style="fill:#231f20;fill-opacity:1;fill-rule:nonzero;stroke:none"
         id="path3157" /><path
         d="m 1550.62,437.363 0,-15.039 c 21.86,28.887 45.77,50.098 71.72,63.633 25.94,13.516 55.77,20.293 89.48,20.293 32.77,0 62.07,-7.148 87.87,-21.445 25.8,-14.297 45.08,-34.512 57.83,-60.664 8.18,-15.215 13.5,-31.641 15.92,-49.258 2.42,-17.637 3.65,-40.137 3.65,-67.5 l 0,-231.6799 c 0,-24.9414 -5.7,-43.789 -17.07,-56.5625 C 1848.65,6.38672 1833.87,0 1815.66,0 c -18.51,0 -33.51,6.54297 -45.04,19.6094 -11.52,13.0664 -17.28,31.7578 -17.28,56.0937 l 0,207.5199 c 0,41.035 -5.7,72.422 -17.09,94.16 -11.41,21.738 -34.1,32.617 -68.11,32.617 -22.18,0 -42.38,-6.621 -60.6,-19.844 -18.22,-13.222 -31.58,-31.386 -40.08,-54.492 -6.09,-18.555 -9.12,-53.203 -9.12,-103.984 l 0,-155.9769 c 0,-25.2343 -5.82,-44.1601 -17.46,-56.7773 C 1529.24,6.30859 1514.22,0 1495.78,0 c -17.83,0 -32.48,6.54297 -43.96,19.6094 -11.49,13.0664 -17.23,31.7578 -17.23,56.0937 l 0,359.8629 c 0,23.711 5.14,41.407 15.41,53.125 10.27,11.7 24.32,17.559 42.15,17.559 10.88,0 20.7,-2.598 29.47,-7.754 8.75,-5.176 15.78,-12.93 21.08,-23.262 5.27,-10.351 7.92,-22.968 7.92,-37.871"
         style="fill:#231f20;fill-opacity:1;fill-rule:nonzero;stroke:none"
         id="path3159" /><path
         d="m 2467.56,252.891 c 0,-37.071 -5.78,-71.231 -17.31,-102.52 -11.54,-31.289 -28.24,-58.1835 -50.09,-80.664 C 2378.3,47.2266 2352.19,29.9805 2321.84,17.9883 2291.46,6.01562 2257.3,0 2219.38,0 c -37.66,0 -71.51,6.09375 -101.57,18.2422 -30.06,12.1484 -56.09,29.5508 -78.08,52.207 -22.02,22.6563 -38.71,49.4138 -50.1,80.2738 -11.39,30.859 -17.07,65 -17.07,102.402 0,37.695 5.76,72.207 17.3,103.535 11.53,31.309 28.07,58.067 49.63,80.254 21.56,22.188 47.68,39.297 78.34,51.309 30.67,12.011 64.51,18.027 101.55,18.027 37.63,0 71.79,-6.094 102.46,-18.262 30.66,-12.187 56.91,-29.531 78.77,-52.05 21.85,-22.52 38.47,-49.297 49.86,-80.333 11.39,-31.054 17.09,-65.293 17.09,-102.714 z m -125,0 c 0,50.742 -11.15,90.234 -33.42,118.476 -22.26,28.242 -52.19,42.383 -89.76,42.383 -24.26,0 -45.63,-6.309 -64.11,-18.906 -18.47,-12.617 -32.71,-31.211 -42.71,-55.821 -10,-24.609 -15,-53.32 -15,-86.132 0,-32.5 4.92,-60.918 14.76,-85.215 9.85,-24.297 23.95,-42.91 42.29,-55.821 18.32,-12.9097 39.92,-19.355 64.77,-19.355 37.57,0 67.5,14.199 89.76,42.598 22.27,28.398 33.42,67.675 33.42,117.793"
         style="fill:#231f20;fill-opacity:1;fill-rule:nonzero;stroke:none"
         id="path3161" /><path
         d="m 2476.86,579.57 -29.47,0 0,10.637 71.7,0 0,-10.637 -29.6,0 0,-86.211 -12.63,0 0,86.211"
         style="fill:#231f20;fill-opacity:1;fill-rule:nonzero;stroke:none"
         id="path3163" /><path
         d="m 2611.2,535.891 c -0.72,13.504 -1.58,29.89 -1.58,41.816 l -0.28,0 c -3.45,-11.211 -7.34,-23.418 -12.22,-36.789 l -17.1,-46.98 -9.48,0 -15.81,46.121 c -4.59,13.8 -8.33,26.152 -11.07,37.648 l -0.28,0 c -0.28,-12.07 -1.01,-28.164 -1.86,-42.824 l -2.59,-41.524 -11.93,0 6.75,96.848 15.95,0 16.53,-46.848 c 4.02,-11.921 7.18,-22.558 9.77,-32.617 l 0.29,0 c 2.58,9.778 6.03,20.41 10.34,32.617 l 17.25,46.848 15.94,0 6.04,-96.848 -12.36,0 -2.3,42.532"
         style="fill:#231f20;fill-opacity:1;fill-rule:nonzero;stroke:none"
         id="path3165" /></g></g></svg>